<mxfile host="app.diagrams.net" modified="2024-05-03T22:08:28.525Z" agent="Mozilla/5.0 (Macintosh; Intel Mac OS X 10_15_7) AppleWebKit/537.36 (KHTML, like Gecko) Chrome/123.0.0.0 Safari/537.36" etag="COIHbH4rgjnOJark8bYd" version="24.3.1" type="device">
  <diagram name="Page-1" id="mpmbdOXy-UDxz3xKoJl6">
    <mxGraphModel dx="2074" dy="1146" grid="0" gridSize="10" guides="1" tooltips="1" connect="1" arrows="1" fold="1" page="1" pageScale="1" pageWidth="850" pageHeight="1100" math="0" shadow="0">
      <root>
        <mxCell id="0" />
        <mxCell id="1" parent="0" />
        <mxCell id="O1UQ5QgIuR40-HrrKCYd-14" value="Db servers" style="points=[[0,0],[0.25,0],[0.5,0],[0.75,0],[1,0],[1,0.25],[1,0.5],[1,0.75],[1,1],[0.75,1],[0.5,1],[0.25,1],[0,1],[0,0.75],[0,0.5],[0,0.25]];outlineConnect=0;gradientColor=none;html=1;whiteSpace=wrap;fontSize=12;fontStyle=0;container=1;pointerEvents=0;collapsible=0;recursiveResize=0;shape=mxgraph.aws4.group;grIcon=mxgraph.aws4.group_security_group;grStroke=0;strokeColor=#00A4A6;fillColor=#E6F6F7;verticalAlign=top;align=left;spacingLeft=30;fontColor=#147EBA;dashed=0;" vertex="1" parent="1">
          <mxGeometry x="548.75" y="430" width="150" height="330" as="geometry" />
        </mxCell>
        <mxCell id="O1UQ5QgIuR40-HrrKCYd-2" value="App priv" style="points=[[0,0],[0.25,0],[0.5,0],[0.75,0],[1,0],[1,0.25],[1,0.5],[1,0.75],[1,1],[0.75,1],[0.5,1],[0.25,1],[0,1],[0,0.75],[0,0.5],[0,0.25]];outlineConnect=0;gradientColor=none;html=1;whiteSpace=wrap;fontSize=12;fontStyle=0;container=1;pointerEvents=0;collapsible=0;recursiveResize=0;shape=mxgraph.aws4.group;grIcon=mxgraph.aws4.group_security_group;grStroke=0;strokeColor=#00A4A6;fillColor=#E6F6F7;verticalAlign=top;align=left;spacingLeft=30;fontColor=#147EBA;dashed=0;" vertex="1" parent="1">
          <mxGeometry x="350" y="430" width="150" height="330" as="geometry" />
        </mxCell>
        <mxCell id="O1UQ5QgIuR40-HrrKCYd-4" style="edgeStyle=orthogonalEdgeStyle;rounded=0;orthogonalLoop=1;jettySize=auto;html=1;startArrow=classic;startFill=1;" edge="1" parent="1" source="O1UQ5QgIuR40-HrrKCYd-3" target="O1UQ5QgIuR40-HrrKCYd-5">
          <mxGeometry relative="1" as="geometry">
            <mxPoint x="230" y="510" as="targetPoint" />
          </mxGeometry>
        </mxCell>
        <mxCell id="O1UQ5QgIuR40-HrrKCYd-3" value="" style="shape=actor;whiteSpace=wrap;html=1;" vertex="1" parent="1">
          <mxGeometry x="90" y="480" width="40" height="60" as="geometry" />
        </mxCell>
        <mxCell id="O1UQ5QgIuR40-HrrKCYd-7" style="edgeStyle=orthogonalEdgeStyle;rounded=0;orthogonalLoop=1;jettySize=auto;html=1;startArrow=classic;startFill=1;" edge="1" parent="1" source="O1UQ5QgIuR40-HrrKCYd-5" target="O1UQ5QgIuR40-HrrKCYd-6">
          <mxGeometry relative="1" as="geometry" />
        </mxCell>
        <mxCell id="O1UQ5QgIuR40-HrrKCYd-5" value="API GATEWAY /getClient" style="sketch=0;points=[[0,0,0],[0.25,0,0],[0.5,0,0],[0.75,0,0],[1,0,0],[0,1,0],[0.25,1,0],[0.5,1,0],[0.75,1,0],[1,1,0],[0,0.25,0],[0,0.5,0],[0,0.75,0],[1,0.25,0],[1,0.5,0],[1,0.75,0]];outlineConnect=0;fontColor=#232F3E;fillColor=#E7157B;strokeColor=#ffffff;dashed=0;verticalLabelPosition=bottom;verticalAlign=top;align=center;html=1;fontSize=12;fontStyle=0;aspect=fixed;shape=mxgraph.aws4.resourceIcon;resIcon=mxgraph.aws4.api_gateway;" vertex="1" parent="1">
          <mxGeometry x="191" y="471" width="78" height="78" as="geometry" />
        </mxCell>
        <mxCell id="O1UQ5QgIuR40-HrrKCYd-9" style="edgeStyle=orthogonalEdgeStyle;rounded=0;orthogonalLoop=1;jettySize=auto;html=1;startArrow=classic;startFill=1;endArrow=none;endFill=0;" edge="1" parent="1" source="O1UQ5QgIuR40-HrrKCYd-6" target="O1UQ5QgIuR40-HrrKCYd-8">
          <mxGeometry relative="1" as="geometry" />
        </mxCell>
        <mxCell id="O1UQ5QgIuR40-HrrKCYd-6" value="Lambda API" style="sketch=0;outlineConnect=0;fontColor=#232F3E;gradientColor=none;fillColor=#ED7100;strokeColor=none;dashed=0;verticalLabelPosition=bottom;verticalAlign=top;align=center;html=1;fontSize=12;fontStyle=0;aspect=fixed;pointerEvents=1;shape=mxgraph.aws4.lambda_function;" vertex="1" parent="1">
          <mxGeometry x="385" y="470" width="80" height="80" as="geometry" />
        </mxCell>
        <mxCell id="O1UQ5QgIuR40-HrrKCYd-8" value="Redshift Database" style="outlineConnect=0;dashed=0;verticalLabelPosition=bottom;verticalAlign=top;align=center;html=1;shape=mxgraph.aws3.redshift;fillColor=#2E73B8;gradientColor=none;" vertex="1" parent="1">
          <mxGeometry x="590" y="472.5" width="67.5" height="75" as="geometry" />
        </mxCell>
        <mxCell id="O1UQ5QgIuR40-HrrKCYd-12" style="edgeStyle=orthogonalEdgeStyle;rounded=0;orthogonalLoop=1;jettySize=auto;html=1;" edge="1" parent="1" source="O1UQ5QgIuR40-HrrKCYd-10" target="O1UQ5QgIuR40-HrrKCYd-11">
          <mxGeometry relative="1" as="geometry" />
        </mxCell>
        <mxCell id="O1UQ5QgIuR40-HrrKCYd-10" value="SNS Topic" style="sketch=0;points=[[0,0,0],[0.25,0,0],[0.5,0,0],[0.75,0,0],[1,0,0],[0,1,0],[0.25,1,0],[0.5,1,0],[0.75,1,0],[1,1,0],[0,0.25,0],[0,0.5,0],[0,0.75,0],[1,0.25,0],[1,0.5,0],[1,0.75,0]];outlineConnect=0;fontColor=#232F3E;fillColor=#E7157B;strokeColor=#ffffff;dashed=0;verticalLabelPosition=bottom;verticalAlign=top;align=center;html=1;fontSize=12;fontStyle=0;aspect=fixed;shape=mxgraph.aws4.resourceIcon;resIcon=mxgraph.aws4.sns;" vertex="1" parent="1">
          <mxGeometry x="191" y="620" width="78" height="78" as="geometry" />
        </mxCell>
        <mxCell id="O1UQ5QgIuR40-HrrKCYd-13" style="edgeStyle=orthogonalEdgeStyle;rounded=0;orthogonalLoop=1;jettySize=auto;html=1;" edge="1" parent="1" source="O1UQ5QgIuR40-HrrKCYd-11" target="O1UQ5QgIuR40-HrrKCYd-8">
          <mxGeometry relative="1" as="geometry" />
        </mxCell>
        <mxCell id="O1UQ5QgIuR40-HrrKCYd-1" value="VPC Prod" style="sketch=0;outlineConnect=0;gradientColor=none;html=1;whiteSpace=wrap;fontSize=12;fontStyle=0;shape=mxgraph.aws4.group;grIcon=mxgraph.aws4.group_vpc;strokeColor=#879196;fillColor=none;verticalAlign=top;align=left;spacingLeft=30;fontColor=#879196;dashed=0;" vertex="1" parent="1">
          <mxGeometry x="310" y="390" width="420" height="400" as="geometry" />
        </mxCell>
        <mxCell id="O1UQ5QgIuR40-HrrKCYd-11" value="Lambda Suscriber" style="sketch=0;outlineConnect=0;fontColor=#232F3E;gradientColor=none;fillColor=#ED7100;strokeColor=none;dashed=0;verticalLabelPosition=bottom;verticalAlign=top;align=center;html=1;fontSize=12;fontStyle=0;aspect=fixed;pointerEvents=1;shape=mxgraph.aws4.lambda_function;" vertex="1" parent="1">
          <mxGeometry x="385" y="619" width="80" height="80" as="geometry" />
        </mxCell>
      </root>
    </mxGraphModel>
  </diagram>
</mxfile>
